<?xml version="1.0" encoding="utf-8"?>
<!-- Generator: Adobe Illustrator 16.0.3, SVG Export Plug-In . SVG Version: 6.00 Build 0)  -->
<!DOCTYPE svg PUBLIC "-//W3C//DTD SVG 1.1//EN" "http://www.w3.org/Graphics/SVG/1.1/DTD/svg11.dtd">
<svg version="1.1" id="Capa_1" xmlns="http://www.w3.org/2000/svg" xmlns:xlink="http://www.w3.org/1999/xlink" x="0px" y="0px"
	 width="786px" height="239px" viewBox="0 0 786 239" enable-background="new 0 0 786 239" xml:space="preserve">
<g>
	<defs>
		<rect id="SVGID_1_" x="-85" y="-364" width="960" height="960"/>
	</defs>
	<clipPath id="SVGID_2_">
		<use xlink:href="#SVGID_1_"  overflow="visible"/>
	</clipPath>
	<path clip-path="url(#SVGID_2_)" fill="#FFFFFF" d="M112.733,87.516c-8.658-8.767-20.176-13.594-32.432-13.594
		s-23.774,4.827-32.432,13.594c-0.484,0.49-0.953,0.99-1.413,1.498V43.181h-11.64v71.417c-0.221,1.853-0.334,3.73-0.334,5.625
		s0.113,3.771,0.334,5.624v38.107h11.64v-12.522c0.46,0.508,0.929,1.008,1.413,1.498c8.658,8.766,20.176,13.594,32.432,13.594
		s23.774-4.828,32.432-13.594c8.632-8.741,13.387-20.357,13.387-32.707C126.12,107.872,121.365,96.257,112.733,87.516
		 M80.301,154.704c-17.777,0-32.406-13.939-33.845-31.617v-5.729c1.439-17.678,16.068-31.617,33.845-31.617
		c18.727,0,33.963,15.468,33.963,34.481C114.264,139.235,99.028,154.704,80.301,154.704"/>
	<rect x="143.607" y="42.823" clip-path="url(#SVGID_2_)" fill="#FFFFFF" width="12.469" height="121.131"/>
	<rect x="176.264" y="76.54" clip-path="url(#SVGID_2_)" fill="#FFFFFF" width="12.469" height="87.594"/>
	<path clip-path="url(#SVGID_2_)" fill="#FFFFFF" d="M396.849,44.447c-22.216-15.091-51.525-23.401-82.529-23.401
		c-31.003,0-60.312,8.31-82.528,23.401c-7.972,5.415-14.761,11.514-20.283,18.208c0.256,0.327,0.33,0.813,0.153,1.204
		c11.98,0.308,23.968-0.084,35.953-0.22c14.905-9.595,33.717-15.589,54.112-17.34v115.236h24.109V46.21
		c21.671,1.696,41.612,8.171,57.054,18.66c0.045,0.031,0.09,0.062,0.136,0.094c12.085,0.185,24.169,0.625,36.255,0.41
		C413.406,57.606,405.887,50.587,396.849,44.447"/>
	<path clip-path="url(#SVGID_2_)" fill="#FFFFFF" d="M192.199,49.786c0,5.341-4.343,9.67-9.7,9.67c-5.358,0-9.7-4.329-9.7-9.67
		c0-5.34,4.342-9.67,9.7-9.67C187.856,40.116,192.199,44.446,192.199,49.786"/>
	<path clip-path="url(#SVGID_2_)" fill="#FFFFFF" d="M288.04,164.134l-0.274-64.607c0,0,0.042-0.48-0.006-1.311l-0.008-1.74
		c-0.08-0.059-0.157-0.148-0.233-0.257c-0.147-0.812-0.371-1.741-0.711-2.75c0.003-0.036,0.009-0.072,0.01-0.108
		c0.002-0.03,0.005-0.058,0.009-0.086c-0.061-0.094-0.124-0.187-0.186-0.281c-1.921-5.256-7.018-12.435-20.41-16.636
		c-3.497-1.318-7.168-2.134-10.94-2.413c-0.006-0.001-0.013-0.003-0.02-0.003l0.001,0.001c-0.967-0.071-1.94-0.109-2.92-0.109
		c-11.067,0-21.455,4.581-29.344,12.915V76.54h-12.469v87.594h12.469v-52.635c3.159-14.803,15.116-25.846,29.344-25.846
		c5.635,0,10.912,1.734,15.429,4.746c2.584,1.933,8.072,7.679,8.072,21.604v52.131H288.04z"/>
	<path clip-path="url(#SVGID_2_)" fill="#FFFFFF" d="M748.723,141.752c-3.982-5.54-9.569-10.447-16.605-14.588
		c-13.706-8.063-31.76-12.504-50.834-12.504c-19.077,0-37.13,4.44-50.835,12.504c-3.448,2.029-6.547,4.243-9.28,6.625v-64.82
		h-15.875v94.854h1.94c0.007,0.104,0.014,0.207,0.021,0.311h16.064c-0.142-0.844-0.218-1.71-0.218-2.6
		c0-10.077,9.684-17.279,15.454-20.675c11.286-6.64,26.46-10.296,42.728-10.296c16.266,0,31.438,3.656,42.725,10.296
		c5.771,3.396,15.455,10.598,15.455,20.675c0,0.89-0.077,1.756-0.219,2.6h16.064c0.07-0.86,0.106-1.729,0.106-2.6
		C755.415,154.584,753.163,147.929,748.723,141.752"/>
	<path clip-path="url(#SVGID_2_)" fill="#FFFFFF" d="M584.774,134.618c-1.143,0.8-2.24,1.493-3.223,2.075
		c-11.209,6.633-26.279,10.286-42.437,10.286c-16.156,0-31.228-3.653-42.437-10.286c-5.736-3.395-15.359-10.596-15.359-20.685
		c0-10.089,9.623-17.29,15.359-20.685c11.209-6.633,26.28-10.287,42.437-10.287c16.157,0,31.228,3.654,42.437,10.287
		c1.201,0.71,2.571,1.588,3.989,2.624h21.827c-0.366-0.572-0.751-1.14-1.153-1.704c-3.962-5.542-9.52-10.452-16.521-14.595
		c-13.636-8.07-31.599-12.514-50.579-12.514c-18.979,0-36.943,4.444-50.579,12.514c-7.001,4.143-12.56,9.053-16.521,14.595
		c-4.411,6.173-6.648,12.823-6.648,19.765s2.237,13.591,6.648,19.764c3.961,5.542,9.52,10.452,16.521,14.596
		c13.636,8.069,31.6,12.514,50.579,12.514c18.98,0,36.943-4.444,50.579-12.514c7.001-4.144,12.559-9.054,16.521-14.596
		c0.273-0.383,0.538-0.769,0.796-1.154H584.774z"/>
	<path clip-path="url(#SVGID_2_)" fill="#FFFFFF" d="M465.957,123.962h13.962c0.86-2.942,1-4.883,1-7.955
		c0-6.919-2.196-13.552-6.53-19.714c-3.901-5.548-9.379-10.465-16.28-14.616c-13.448-8.089-31.163-12.543-49.882-12.543
		c-18.717,0-36.432,4.454-49.881,12.543c-6.901,4.151-12.378,9.068-16.28,14.616c-4.333,6.162-6.53,12.795-6.53,19.714
		c0,6.92,2.197,13.553,6.53,19.715c3.902,5.548,9.379,10.466,16.28,14.616c13.449,8.088,31.164,12.543,49.881,12.543
		c18.719,0,36.434-4.455,49.882-12.543c6.901-4.15,12.379-9.068,16.28-14.616c0.819-1.166,1.563-2.348,2.229-3.547h-20.424
		c-2.207,1.906-4.474,3.432-6.326,4.547c-10.998,6.614-25.786,10.257-41.642,10.257c-15.854,0-30.642-3.643-41.64-10.257
		c-4.025-2.421-9.995-6.782-13.084-12.761H465.957z M366.586,95.293c10.998-6.614,25.786-10.257,41.64-10.257
		c15.855,0,30.644,3.643,41.642,10.257c3.885,2.337,9.582,6.481,12.752,12.143H353.834
		C357.003,101.774,362.701,97.63,366.586,95.293"/>
</g>
<text transform="matrix(1 0 0 1 118.3979 218.4473)"><tspan x="0" y="0" fill="#FFFFFF" font-family="'Ubuntu'" font-size="28.2888" letter-spacing="14">BLI</tspan><tspan x="77.878" y="0" fill="#FFFFFF" font-family="'Ubuntu'" font-size="28.2888" letter-spacing="14">N</tspan><tspan x="110.608" y="0" fill="#FFFFFF" font-family="'Ubuntu'" font-size="28.2888" letter-spacing="12">D</tspan><tspan x="142.15" y="0" fill="#FFFFFF" font-family="'Ubuntu'" font-size="28.2888" letter-spacing="14">A</tspan><tspan x="173.579" y="0" fill="#FFFFFF" font-family="'Ubuntu'" font-size="28.2888" letter-spacing="14">JE</tspan><tspan x="226.252" y="0" fill="#FFFFFF" font-family="'Ubuntu'" font-size="28.2888" letter-spacing="14">S</tspan><tspan x="254.314" y="0" fill="#FFFFFF" font-family="'Ubuntu'" font-size="28.2888" letter-spacing="14"> PR</tspan><tspan x="333.013" y="0" fill="#FFFFFF" font-family="'Ubuntu'" font-size="28.2888" letter-spacing="14">E</tspan><tspan x="361.047" y="0" fill="#FFFFFF" font-family="'Ubuntu'" font-size="28.2888" letter-spacing="14">MIU</tspan><tspan x="451.288" y="0" fill="#FFFFFF" font-family="'Ubuntu'" font-size="28.2888">M</tspan></text>
</svg>
