<?xml version="1.0" encoding="iso-8859-1"?>
<!-- Generator: Adobe Illustrator 21.1.0, SVG Export Plug-In . SVG Version: 6.00 Build 0)  -->
<svg version="1.1" id="LOGO" xmlns="http://www.w3.org/2000/svg" xmlns:xlink="http://www.w3.org/1999/xlink" x="0px" y="0px"
	 viewBox="0 0 750 230" style="enable-background:new 0 0 750 230;" xml:space="preserve">
<g>
	<g id="XMLID_499_">
		<g>
			<g id="XMLID_598_">
				<path id="XMLID_599_" style="fill:#32417C;" d="M92.784,82.614C84.127,73.848,72.609,69.02,60.353,69.02
					c-12.256,0-23.774,4.828-32.432,13.594c-0.484,0.49-0.954,0.99-1.413,1.498V38.279H14.867v71.417
					c-0.221,1.852-0.334,3.73-0.334,5.624s0.113,3.772,0.334,5.624v38.108h11.641V146.53c0.459,0.508,0.929,1.008,1.413,1.498
					c8.658,8.766,20.175,13.594,32.432,13.594c12.256,0,23.774-4.828,32.432-13.594c8.633-8.741,13.387-20.357,13.387-32.707
					C106.172,102.971,101.417,91.355,92.784,82.614z M60.353,149.802c-17.777,0-32.406-13.939-33.845-31.617v-5.729
					c1.439-17.678,16.068-31.617,33.845-31.617c18.727,0,33.963,15.468,33.963,34.481S79.08,149.802,60.353,149.802z"/>
			</g>
			<g id="XMLID_596_">
				<rect id="XMLID_597_" x="123.659" y="37.921" style="fill:#32417C;" width="12.469" height="121.131"/>
			</g>
			<g id="XMLID_594_">
				<rect id="XMLID_595_" x="156.316" y="71.638" style="fill:#6B6B6D;" width="12.469" height="87.594"/>
			</g>
			<g id="XMLID_592_">
				<path id="XMLID_593_" style="fill:#32417C;" d="M376.9,39.545c-22.216-15.091-51.526-23.401-82.529-23.401
					c-31.003,0-60.312,8.311-82.529,23.401c-7.972,5.415-14.761,11.514-20.283,18.208c0.256,0.327,0.33,0.814,0.153,1.205
					c11.981,0.308,23.968-0.084,35.953-0.219c14.905-9.596,33.718-15.59,54.112-17.341v115.236h24.11V41.307
					c21.671,1.697,41.611,8.171,57.053,18.66c0.046,0.031,0.091,0.062,0.136,0.094c12.085,0.186,24.169,0.625,36.255,0.41
					C393.458,52.704,385.939,45.684,376.9,39.545z"/>
			</g>
			<g id="XMLID_590_">
				<ellipse id="XMLID_591_" style="fill:#6B6B6D;" cx="162.551" cy="44.884" rx="9.7" ry="9.67"/>
			</g>
			<g id="XMLID_588_">
				<path id="XMLID_589_" style="fill:#32417C;" d="M268.091,159.232l-0.274-64.607c0,0,0.043-0.481-0.006-1.311l-0.007-1.74
					c-0.08-0.06-0.158-0.149-0.234-0.257c-0.146-0.812-0.37-1.741-0.711-2.75c0.003-0.036,0.009-0.072,0.011-0.109
					c0.001-0.029,0.005-0.057,0.008-0.085c-0.061-0.094-0.124-0.187-0.186-0.281c-1.921-5.256-7.018-12.435-20.41-16.636
					c-3.497-1.318-7.168-2.134-10.94-2.414c-0.007-0.001-0.013-0.002-0.02-0.003l0.001,0.002c-0.967-0.071-1.941-0.11-2.92-0.11
					c-11.067,0-21.455,4.581-29.344,12.916V71.638H190.59v87.594h12.469v-52.635c3.159-14.803,15.116-25.846,29.344-25.846
					c5.635,0,10.912,1.734,15.429,4.746c2.584,1.934,8.072,7.679,8.072,21.604v52.131H268.091z"/>
			</g>
			<g id="XMLID_586_">
				<path id="XMLID_587_" style="fill:#6E6E70;" d="M728.774,136.85c-3.982-5.539-9.57-10.447-16.607-14.588
					c-13.705-8.063-31.758-12.504-50.834-12.504c-19.076,0-37.129,4.441-50.834,12.504c-3.448,2.029-6.546,4.243-9.28,6.625v-64.82
					h-15.875v94.854h1.94c0.007,0.103,0.014,0.207,0.022,0.31h16.064c-0.141-0.844-0.218-1.71-0.218-2.599
					c0-10.077,9.683-17.279,15.455-20.675c11.286-6.64,26.459-10.296,42.726-10.296s31.44,3.657,42.726,10.296
					c5.772,3.396,15.455,10.597,15.455,20.675c0,0.889-0.077,1.756-0.218,2.599h16.064c0.071-0.862,0.106-1.728,0.106-2.599
					C735.466,149.682,733.215,143.027,728.774,136.85z"/>
			</g>
			<g id="XMLID_584_">
				<path id="XMLID_585_" style="fill:#6E6E70;" d="M564.826,129.716c-1.143,0.8-2.24,1.494-3.223,2.075
					c-11.209,6.633-26.28,10.286-42.436,10.286c-16.157,0-31.228-3.653-42.436-10.286c-5.736-3.395-15.36-10.596-15.36-20.685
					c0-10.089,9.623-17.29,15.36-20.685c11.209-6.633,26.28-10.286,42.436-10.286c16.157,0,31.227,3.653,42.436,10.286
					c1.201,0.711,2.572,1.588,3.989,2.624h21.828c-0.367-0.572-0.751-1.139-1.154-1.703c-3.961-5.542-9.519-10.452-16.52-14.595
					c-13.637-8.07-31.599-12.514-50.579-12.514c-18.98,0-36.943,4.444-50.579,12.514c-7.001,4.143-12.559,9.054-16.52,14.595
					c-4.412,6.173-6.649,12.822-6.649,19.764c0,6.942,2.237,13.592,6.649,19.764c3.961,5.542,9.519,10.452,16.52,14.595
					c13.636,8.07,31.599,12.514,50.579,12.514c18.98,0,36.943-4.444,50.579-12.514c7.001-4.143,12.559-9.054,16.52-14.595
					c0.274-0.383,0.539-0.768,0.796-1.155H564.826z"/>
			</g>
			<g id="XMLID_580_">
				<path id="XMLID_581_" style="fill:#6E6E70;" d="M446.009,119.06h13.962c0.86-2.942,1-4.882,1-7.954
					c0-6.92-2.197-13.553-6.531-19.715c-3.901-5.548-9.379-10.465-16.28-14.616c-13.449-8.089-31.164-12.543-49.882-12.543
					c-18.718,0-36.432,4.455-49.881,12.543c-6.901,4.15-12.378,9.068-16.28,14.616c-4.334,6.162-6.531,12.795-6.531,19.715
					c0,6.92,2.197,13.553,6.531,19.715c3.901,5.548,9.379,10.465,16.28,14.616c13.449,8.089,31.164,12.543,49.881,12.543
					c18.718,0,36.433-4.455,49.882-12.543c6.901-4.15,12.378-9.068,16.28-14.616c0.82-1.166,1.563-2.349,2.23-3.547h-20.424
					c-2.207,1.906-4.473,3.432-6.326,4.546c-10.998,6.614-25.786,10.257-41.641,10.257c-15.855,0-30.643-3.643-41.641-10.257
					c-4.025-2.421-9.995-6.782-13.084-12.761H446.009L446.009,119.06z M346.638,90.392c10.997-6.614,25.786-10.257,41.641-10.257
					c15.855,0,30.643,3.643,41.641,10.257c3.885,2.336,9.582,6.481,12.752,12.142H333.886
					C337.055,96.873,342.753,92.728,346.638,90.392z"/>
			</g>
		</g>
	</g>
	<g>
		<path style="fill:#32417C;" d="M100.826,193.743h9.194c2.263,0,4.045,0.622,5.177,1.754c0.905,0.905,1.358,2.009,1.358,3.366
			v0.057c0,2.235-1.188,3.479-2.603,4.271c2.292,0.877,3.706,2.207,3.706,4.866v0.057c0,3.621-2.942,5.432-7.412,5.432h-9.42
			V193.743z M109.087,201.748c1.923,0,3.14-0.622,3.14-2.094v-0.057c0-1.301-1.019-2.036-2.857-2.036h-4.3v4.187H109.087z
			 M110.246,209.726c1.924,0,3.083-0.679,3.083-2.149v-0.057c0-1.33-0.99-2.15-3.225-2.15h-5.036v4.356H110.246z"/>
		<path style="fill:#32417C;" d="M135.395,193.743h4.356v15.842h9.873v3.961h-14.229V193.743z"/>
		<path style="fill:#32417C;" d="M167.247,193.743h4.357v19.803h-4.357V193.743z"/>
		<path style="fill:#32417C;" d="M190.699,193.743h4.017l9.279,12.192v-12.192h4.3v19.803h-3.706l-9.59-12.589v12.589h-4.3V193.743z
			"/>
		<path style="fill:#32417C;" d="M227.191,193.743h7.723c6.224,0,10.523,4.271,10.523,9.845v0.057c0,5.573-4.3,9.901-10.523,9.901
			h-7.723V193.743z M234.914,209.613c3.564,0,5.969-2.404,5.969-5.912v-0.057c0-3.508-2.405-5.969-5.969-5.969h-3.367v11.938
			H234.914z"/>
		<path style="fill:#32417C;" d="M268.833,193.601h4.017l8.487,19.944h-4.555l-1.811-4.441h-8.374l-1.811,4.441h-4.442
			L268.833,193.601z M273.416,205.256l-2.631-6.422l-2.631,6.422H273.416z"/>
		<path style="fill:#32417C;" d="M296.555,210.858l2.744-3.056c1.132,1.245,2.235,1.98,3.621,1.98c1.641,0,2.659-0.99,2.659-3.281
			v-12.759h4.47V206.7c0,2.348-0.679,4.102-1.867,5.29c-1.216,1.216-2.999,1.839-5.148,1.839
			C299.95,213.828,297.913,212.47,296.555,210.858z"/>
		<path style="fill:#32417C;" d="M328.635,193.743h14.937v3.876h-10.609v4.017h9.336v3.876h-9.336v4.158h10.75v3.876h-15.078
			V193.743z"/>
		<path style="fill:#32417C;" d="M360.375,210.66l2.574-3.083c1.782,1.471,3.649,2.404,5.913,2.404c1.782,0,2.857-0.707,2.857-1.867
			v-0.057c0-1.104-0.679-1.669-3.989-2.518c-3.989-1.019-6.563-2.122-6.563-6.054v-0.057c0-3.593,2.886-5.97,6.931-5.97
			c2.885,0,5.347,0.905,7.355,2.518l-2.263,3.282c-1.754-1.217-3.479-1.952-5.148-1.952c-1.669,0-2.546,0.764-2.546,1.726v0.057
			c0,1.302,0.849,1.726,4.272,2.603c4.017,1.047,6.28,2.489,6.28,5.941v0.056c0,3.933-2.999,6.14-7.271,6.14
			C365.778,213.828,362.751,212.782,360.375,210.66z"/>
		<path style="fill:#32417C;" d="M416.612,193.743h8.091c4.725,0,7.582,2.801,7.582,6.846v0.057c0,4.583-3.564,6.96-8.006,6.96
			h-3.31v5.94h-4.357V193.743z M424.421,203.729c2.178,0,3.451-1.302,3.451-2.999v-0.057c0-1.952-1.358-2.998-3.536-2.998h-3.366
			v6.054H424.421z"/>
		<path style="fill:#32417C;" d="M449.654,193.743h9.053c2.519,0,4.47,0.707,5.771,2.009c1.104,1.103,1.697,2.659,1.697,4.526v0.057
			c0,3.196-1.726,5.205-4.243,6.139l4.837,7.072h-5.092l-4.243-6.337h-3.423v6.337h-4.357V193.743z M458.425,203.361
			c2.121,0,3.338-1.132,3.338-2.801v-0.057c0-1.867-1.302-2.828-3.423-2.828h-4.328v5.686H458.425z"/>
		<path style="fill:#32417C;" d="M484.251,193.743h14.938v3.876H488.58v4.017h9.335v3.876h-9.335v4.158h10.75v3.876h-15.079V193.743
			z"/>
		<path style="fill:#32417C;" d="M517.348,193.743h4.696l5.205,8.374l5.206-8.374h4.695v19.803h-4.328v-12.929l-5.573,8.459h-0.112
			l-5.517-8.374v12.844h-4.272V193.743z"/>
		<path style="fill:#32417C;" d="M556.246,193.743h4.356v19.803h-4.356V193.743z"/>
		<path style="fill:#32417C;" d="M579.387,205.058v-11.315h4.356v11.203c0,3.225,1.612,4.894,4.271,4.894s4.271-1.612,4.271-4.753
			v-11.344h4.357v11.175c0,5.997-3.367,8.939-8.686,8.939S579.387,210.886,579.387,205.058z"/>
		<path style="fill:#32417C;" d="M615.228,193.743h4.696l5.205,8.374l5.206-8.374h4.696v19.803h-4.329v-12.929l-5.573,8.459h-0.112
			l-5.517-8.374v12.844h-4.272V193.743z"/>
	</g>
</g>
</svg>
